<?xml version="1.0" encoding="UTF-8"?>
<svg width="32" height="32" viewBox="0 0 32 32" fill="none" xmlns="http://www.w3.org/2000/svg">
  <!-- Background circle -->
  <circle cx="16" cy="16" r="16" fill="#4F46E5"/>
  
  <!-- Mountain silhouette -->
  <path d="M16 6L8 18H24L16 6Z" fill="white"/>
  
  <!-- Sun rays -->
  <path d="M16 4L16 2M22 8L23 7M26 16L28 16M22 24L23 25M16 30L16 28M10 24L9 25M6 16L4 16M10 8L9 7" 
        stroke="white" stroke-width="1.5" stroke-linecap="round"/>
  
  <!-- Sun center -->
  <circle cx="16" cy="16" r="2" fill="white"/>
  
  <!-- Travel path -->
  <path d="M8 22C8 22 12 18 16 18C20 18 24 22 24 22" 
        stroke="white" stroke-width="1.5" stroke-linecap="round"/>
</svg> 